<svg width="278" height="295" viewBox="0 0 278 295" fill="none" xmlns="http://www.w3.org/2000/svg">
<g opacity="0.6">
<path d="M-60.9375 304.386C-37.2853 300.442 24.307 287.573 41.7943 278.996C138.773 232.259 185.098 70.4248 185.673 68.8428H263.752C263.17 70.3893 253.969 96.8792 215.022 170.83C190.944 214.771 156.097 244.064 114.993 268.127C44.3979 309.423 -60.9375 304.386 -60.9375 304.386Z" fill="#B71548"/>
<g opacity="0.1">
<path d="M-60.9336 304.387C-37.2814 300.443 24.3109 287.574 41.7982 278.997C138.777 232.26 185.102 70.4258 185.677 68.8438H263.756C263.174 70.3903 253.973 96.8802 215.026 170.831C190.948 214.772 156.101 244.065 114.997 268.128C44.4018 309.424 -60.9336 304.387 -60.9336 304.387Z" fill="black"/>
</g>
<path d="M167.535 60.7344L185.675 68.8431C185.179 70.1626 161.009 194.695 87.0653 254.471C35.178 296.412 1.96978 306.259 -110.758 304.585V282.678C-47.1437 282.678 -1.76179 280.621 39.6402 259.019C133.079 210.274 167.393 61.0962 167.535 60.7344Z" fill="#B71548"/>
<path d="M167.535 60.7344H251.687L263.754 68.8431H185.675L167.535 60.7344Z" fill="#B71548"/>
<path d="M231.632 8.59082L286.35 77.781L157.391 77.4334L231.632 8.59082Z" fill="#B71548"/>
<g opacity="0.1">
<path d="M231.632 8.59082L286.35 77.781L157.391 77.4334L231.632 8.59082Z" fill="black"/>
</g>
<path d="M157.394 77.4337L138.637 68.8426L212.878 0L231.635 8.59114L157.394 77.4337Z" fill="#B71548"/>
</g>
</svg>
