<svg width="35" height="32" viewBox="0 0 35 32" fill="none" xmlns="http://www.w3.org/2000/svg">
<path d="M21.75 0.75C21.087 0.75 20.4511 1.01339 19.9822 1.48223C19.5134 1.95107 19.25 2.58696 19.25 3.25V8.25C19.25 8.91304 19.5134 9.54893 19.9822 10.0178C20.4511 10.4866 21.087 10.75 21.75 10.75V14.5L26.25 10.75H31.75C32.413 10.75 33.0489 10.4866 33.5178 10.0178C33.9866 9.54893 34.25 8.91304 34.25 8.25V3.25C34.25 2.58696 33.9866 1.95107 33.5178 1.48223C33.0489 1.01339 32.413 0.75 31.75 0.75H21.75ZM10.5 7C9.17392 7 7.90215 7.52678 6.96447 8.46447C6.02678 9.40215 5.5 10.6739 5.5 12C5.5 13.3261 6.02678 14.5979 6.96447 15.5355C7.90215 16.4732 9.17392 17 10.5 17C11.8261 17 13.0979 16.4732 14.0355 15.5355C14.9732 14.5979 15.5 13.3261 15.5 12C15.5 10.6739 14.9732 9.40215 14.0355 8.46447C13.0979 7.52678 11.8261 7 10.5 7ZM16.75 19.5H4.25C3.25544 19.5 2.30161 19.8951 1.59835 20.5983C0.895088 21.3016 0.5 22.2554 0.5 23.25C0.5 26.04 1.6475 28.275 3.53 29.7875C5.3825 31.275 7.8675 32 10.5 32C13.1325 32 15.6175 31.275 17.47 29.7875C19.35 28.275 20.5 26.04 20.5 23.25C20.5 22.2554 20.1049 21.3016 19.4017 20.5983C18.6984 19.8951 17.7446 19.5 16.75 19.5Z" fill="#3D0072"/>
</svg>
