<svg width="424" height="307" viewBox="0 0 424 307" fill="none" xmlns="http://www.w3.org/2000/svg">
<path opacity="0.5" d="M328.8 21.5401C286.382 -6.44841 235.31 -18.2404 184.915 -11.6812C134.52 -5.12209 88.1677 19.3503 54.327 57.2642C20.4864 95.1782 1.41697 144.002 0.603151 194.816C-0.210664 245.629 17.2854 295.039 49.8946 334.017C82.5037 372.995 128.049 398.94 178.208 407.109C228.367 415.279 279.79 405.128 323.083 378.513C366.376 351.897 398.647 310.593 414 262.148C429.353 213.702 426.762 161.35 406.702 114.657L287.847 165.72C295.647 183.875 296.655 204.231 290.685 223.068C284.715 241.904 272.168 257.964 255.334 268.313C238.501 278.662 218.506 282.609 199.003 279.432C179.5 276.256 161.791 266.168 149.112 251.012C136.432 235.857 129.629 216.645 129.946 196.887C130.262 177.13 137.677 158.146 150.835 143.404C163.993 128.662 182.016 119.146 201.611 116.596C221.206 114.046 241.064 118.631 257.557 129.513L328.8 21.5401Z" fill="#80FFC2"/>
</svg>
