<svg width="30" height="29" viewBox="0 0 30 29" fill="none" xmlns="http://www.w3.org/2000/svg">
<path d="M13.6673 24.8L24.6007 13.8666C25.2673 13.2 26.0673 12.8 27.0007 12.8C27.934 12.8 28.734 13.2 29.4007 13.8666L29.6673 14.1333V3.33329C29.6673 1.86663 28.4673 0.666626 27.0007 0.666626H3.00065C1.53398 0.666626 0.333984 1.86663 0.333984 3.33329V24.6666C0.333984 26.1333 1.53398 27.3333 3.00065 27.3333H13.6673V24.8ZM3.00065 3.33329H27.0007V7.33329H3.00065V3.33329ZM27.0007 15.4666C26.8673 15.4666 26.6007 15.6 26.4673 15.7333L25.134 17.0666L27.934 19.8666L29.2673 18.5333C29.534 18.2666 29.534 17.7333 29.2673 17.4666L27.534 15.7333C27.4007 15.6 27.2673 15.4666 27.0007 15.4666ZM24.4673 17.8666L16.334 25.8666V28.6666H19.134L27.2673 20.5333L24.4673 17.8666Z" fill="#3D0072"/>
</svg>
