<svg width="242" height="476" viewBox="0 0 242 476" fill="none" xmlns="http://www.w3.org/2000/svg">
<g opacity="0.4">
<path d="M382.169 261.086C395.028 181.868 341.233 107.225 262.015 94.3659C182.797 81.507 108.154 135.302 95.2949 214.52C82.4359 293.738 136.231 368.381 215.449 381.24C294.667 394.099 369.31 340.304 382.169 261.086Z" fill="#09675F"/>
<path d="M238.636 66.372C237.766 66.3721 236.93 66.03 236.31 65.4195C235.69 64.809 235.334 63.9791 235.32 63.1088V2.89884C235.422 2.09806 235.812 1.3618 236.417 0.828123C237.023 0.294444 237.803 0 238.61 0C239.417 0 240.196 0.294444 240.802 0.828123C241.408 1.3618 241.798 2.09806 241.899 2.89884V63.1088C241.899 63.9743 241.555 64.8043 240.944 65.4162C240.332 66.0282 239.502 66.372 238.636 66.372Z" fill="#09675F"/>
<path d="M151.261 89.7944C150.687 89.7919 150.123 89.6403 149.624 89.3542C149.126 89.0682 148.711 88.6577 148.419 88.1628L118.314 36.0054C117.881 35.2516 117.766 34.3568 117.993 33.5178C118.22 32.6789 118.771 31.9644 119.524 31.5317C120.278 31.099 121.173 30.9834 122.012 31.2105C122.851 31.4375 123.565 31.9885 123.998 32.7422L154.103 84.847C154.547 85.6016 154.674 86.5008 154.457 87.3487C154.24 88.1966 153.697 88.9244 152.945 89.3733C152.424 89.6421 151.847 89.7862 151.261 89.7944Z" fill="#09675F"/>
<path d="M87.3074 153.743C86.7386 153.728 86.1806 153.584 85.6759 153.322L33.5711 123.217C32.8985 122.742 32.4267 122.033 32.2475 121.23C32.0682 120.426 32.1945 119.584 32.6016 118.869C33.0087 118.153 33.6675 117.614 34.4498 117.358C35.2322 117.101 36.0822 117.145 36.8342 117.48L88.9917 147.585C89.6113 147.957 90.0923 148.522 90.3614 149.193C90.6305 149.864 90.6729 150.604 90.4822 151.302C90.2915 151.999 89.878 152.615 89.3049 153.056C88.7317 153.496 88.0304 153.738 87.3074 153.743Z" fill="#09675F"/>
<path d="M63.7847 241.105H3.73259C3.26569 241.164 2.79151 241.124 2.34164 240.985C1.89177 240.847 1.47661 240.615 1.12352 240.303C0.770428 239.992 0.487485 239.609 0.293769 239.181C0.100053 238.752 0 238.286 0 237.816C0 237.345 0.100053 236.88 0.293769 236.451C0.487485 236.022 0.770428 235.639 1.12352 235.328C1.47661 235.017 1.89177 234.785 2.34164 234.646C2.79151 234.508 3.26569 234.467 3.73259 234.526H63.7847C64.5855 234.628 65.3217 235.018 65.8554 235.624C66.3891 236.229 66.6835 237.009 66.6835 237.816C66.6835 238.623 66.3891 239.402 65.8554 240.008C65.3217 240.614 64.5855 241.004 63.7847 241.105Z" fill="#09675F"/>
<path d="M35.2115 358.53C34.6349 358.539 34.0668 358.391 33.5667 358.104C33.0665 357.817 32.6529 357.401 32.3694 356.899C31.9304 356.138 31.8114 355.234 32.0384 354.385C32.2653 353.536 32.8198 352.813 33.58 352.372L85.6848 322.32C86.0584 322.035 86.4884 321.832 86.9463 321.726C87.4041 321.619 87.8793 321.611 88.3404 321.703C88.8015 321.794 89.238 321.982 89.6209 322.255C90.0037 322.528 90.3243 322.879 90.5611 323.285C90.798 323.691 90.9456 324.142 90.9946 324.61C91.0436 325.077 90.9927 325.55 90.8451 325.996C90.6975 326.443 90.4567 326.852 90.1387 327.199C89.8207 327.545 89.4328 327.819 89.0005 328.004L36.8431 358.109C36.3384 358.372 35.7804 358.516 35.2115 358.53Z" fill="#09675F"/>
<path d="M121.161 444.529C120.585 444.521 120.021 444.357 119.53 444.055C119.155 443.842 118.826 443.558 118.562 443.217C118.298 442.876 118.105 442.487 117.992 442.071C117.88 441.655 117.851 441.221 117.907 440.794C117.963 440.366 118.103 439.955 118.319 439.582L148.424 387.424C148.609 386.992 148.884 386.604 149.23 386.286C149.576 385.968 149.986 385.727 150.432 385.58C150.878 385.432 151.351 385.381 151.818 385.43C152.286 385.479 152.738 385.627 153.144 385.864C153.55 386.101 153.901 386.421 154.173 386.804C154.446 387.187 154.634 387.623 154.726 388.084C154.817 388.546 154.809 389.021 154.703 389.479C154.596 389.936 154.394 390.366 154.108 390.74L124.003 442.845C123.731 443.361 123.322 443.791 122.82 444.088C122.318 444.386 121.744 444.538 121.161 444.529Z" fill="#09675F"/>
<path d="M238.636 475.997C237.757 475.997 236.913 475.648 236.292 475.026C235.67 474.404 235.32 473.56 235.32 472.681V412.471C235.422 411.67 235.812 410.934 236.417 410.4C237.023 409.867 237.803 409.572 238.61 409.572C239.417 409.572 240.196 409.867 240.802 410.4C241.408 410.934 241.798 411.67 241.899 412.471V472.681C241.899 473.551 241.557 474.387 240.947 475.007C240.336 475.628 239.506 475.983 238.636 475.997Z" fill="#09675F"/>
<path d="M209.618 202C208.035 198.512 205.773 195.374 202.962 192.772C200.151 190.169 196.849 188.153 193.25 186.843C187.292 184.938 180.936 184.647 174.829 186.001C168.81 187.139 163.293 190.118 159.04 194.527C155.234 199.137 152 204.192 149.408 209.579C149.092 210.106 149.408 212.158 150.092 211.369C153.854 207.583 158.302 204.546 163.198 202.421C167.984 199.893 173.132 198.117 178.461 197.158C182.435 196.613 186.478 196.864 190.355 197.895C193.537 198.64 196.653 199.643 199.671 200.895C202.344 202.402 204.865 204.164 207.197 206.158C209.723 207.79 210.408 203.79 209.618 202Z" fill="#D7D6D6"/>
<path d="M238.636 296.21C220.474 296.197 202.644 291.344 186.982 282.148C171.32 272.953 158.392 259.748 149.531 243.894L153.268 241.789C161.747 256.979 174.127 269.631 189.129 278.439C204.132 287.246 221.213 291.889 238.609 291.889C256.006 291.889 273.087 287.246 288.09 278.439C303.092 269.631 315.472 256.979 323.951 241.789L327.74 243.894C318.879 259.748 305.952 272.953 290.29 282.148C274.628 291.344 256.798 296.197 238.636 296.21Z" fill="#D7D6D6"/>
<path d="M142.724 248.846C143.406 247.763 144.181 246.742 145.039 245.793C146.402 244.118 148.061 242.709 149.934 241.635C151.53 240.83 153.184 240.144 154.881 239.583C155.726 239.233 156.61 238.986 157.513 238.846C158.408 238.846 159.46 238.846 160.407 238.846C161.355 238.846 161.513 241.372 160.407 241.688C158.721 242.276 157.085 242.998 155.513 243.846C154.8 244.198 154.114 244.603 153.46 245.056C153.093 245.294 152.757 245.577 152.46 245.898L151.829 246.53C151.571 246.881 151.27 247.2 150.934 247.477H150.618L150.145 247.951L149.302 248.951C148.793 249.61 148.319 250.295 147.881 251.004L147.25 252.056C146.62 253.16 145.736 254.099 144.671 254.793C144.323 255.058 143.898 255.201 143.46 255.201C143.023 255.201 142.598 255.058 142.25 254.793C140.408 252.898 141.671 250.793 142.724 248.846Z" fill="#D7D6D6"/>
</g>
</svg>
