<svg width="427" height="307" viewBox="0 0 427 307" fill="none" xmlns="http://www.w3.org/2000/svg">
<path opacity="0.5" d="M88.0845 305.599C129.403 336.09 180.199 350.851 231.191 347.184C282.184 343.517 329.969 321.667 365.814 285.627C401.66 249.586 423.173 201.762 426.423 150.892C429.672 100.022 414.442 49.5029 383.514 8.56527C352.586 -32.3724 308.026 -60.9952 257.975 -72.0733C207.925 -83.1513 155.725 -75.945 110.915 -51.7709C66.1046 -27.5969 31.6753 11.9308 13.9178 59.5896C-3.83966 107.248 -3.73972 159.857 14.1994 207.801L136.167 163.487C129.192 144.845 129.153 124.39 136.058 105.859C142.962 87.3277 156.349 71.9583 173.773 62.5589C191.196 53.1594 211.493 50.3574 230.953 54.6648C250.414 58.9722 267.741 70.1015 279.766 86.0191C291.792 101.937 297.714 121.58 296.45 141.359C295.186 161.139 286.822 179.734 272.884 193.747C258.946 207.761 240.366 216.257 220.539 217.682C200.712 219.108 180.961 213.369 164.896 201.513L88.0845 305.599Z" fill="#FFEF68"/>
</svg>
